<svg width="24" height="24" viewBox="0 0 24 24" fill="none" xmlns="http://www.w3.org/2000/svg">
<g clip-path="url(#clip0_553_4808)">
<path d="M23.2969 4.26562C22.1281 4.26562 21.1406 3.29974 21.1406 2.15625C21.1406 1.76788 20.8259 1.45312 20.4375 1.45312C20.0491 1.45312 19.7344 1.76788 19.7344 2.15625C19.7344 3.31934 18.7881 4.26562 17.625 4.26562C17.2366 4.26562 16.9219 4.58038 16.9219 4.96875C16.9219 5.35712 17.2366 5.67188 17.625 5.67188C18.7881 5.67188 19.7344 6.61816 19.7344 7.78125C19.7344 8.16962 20.0491 8.48438 20.4375 8.48438C20.8259 8.48438 21.1406 8.16962 21.1406 7.78125C21.1406 6.63776 22.1281 5.67188 23.2969 5.67188C23.6852 5.67188 24 5.35712 24 4.96875C24 4.58038 23.6852 4.26562 23.2969 4.26562ZM20.4446 5.68359C20.2425 5.4126 20.0024 5.17181 19.7322 4.96875C20.0024 4.76587 20.2425 4.5249 20.4446 4.25391C20.649 4.52197 20.8951 4.76514 21.1692 4.96875C20.8953 5.17218 20.6492 5.41534 20.4446 5.68359Z" fill="#FFFAFA"/>
<path d="M22.6494 17.9213L12.7031 12.9708V11.7911C12.7031 11.4794 12.8747 11.1962 13.1111 11.1174C14.5494 10.6388 15.5156 9.29791 15.5156 7.78125C15.5156 5.84271 13.9385 4.26562 12 4.26562C10.0615 4.26562 8.48438 5.84271 8.48438 7.78125C8.48438 8.16962 8.79913 8.48438 9.1875 8.48438C9.57587 8.48438 9.89062 8.16962 9.89062 7.78125C9.89062 6.61816 10.8369 5.67188 12 5.67188C13.1631 5.67188 14.1094 6.61816 14.1094 7.78125C14.1094 8.69147 13.5297 9.49603 12.6669 9.78333C11.8475 10.056 11.2969 10.8629 11.2969 11.7913V12.9708L1.34949 17.922C0.51709 18.3382 0 19.1748 0 20.1055C0 21.4517 1.09515 22.5469 2.44135 22.5469H21.5118C22.8604 22.5469 24 21.4565 24 20.1055C24 19.1748 23.4829 18.3382 22.6494 17.9213ZM21.5118 21.1406H19.7344V20.4375C19.7344 19.2744 18.7881 18.3281 17.625 18.3281C17.2366 18.3281 16.9219 18.6429 16.9219 19.0312C16.9219 19.4196 17.2366 19.7344 17.625 19.7344C18.0126 19.7344 18.3281 20.0499 18.3281 20.4375V21.1406H5.625V20.4375C5.625 20.0499 5.94049 19.7344 6.32812 19.7344C6.71649 19.7344 7.03125 19.4196 7.03125 19.0312C7.03125 18.6429 6.71649 18.3281 6.32812 18.3281C5.16504 18.3281 4.21875 19.2744 4.21875 20.4375V21.1406H2.44135C1.87061 21.1406 1.40625 20.6763 1.40625 20.1055C1.40625 19.7109 1.62543 19.3563 1.97736 19.1803L12 14.1916L22.0215 19.1797C22.3746 19.3563 22.5938 19.7109 22.5938 20.1055C22.5938 20.6666 22.0983 21.1406 21.5118 21.1406Z" fill="#FFFAFA"/>
<path d="M2.8125 13.4062C2.8125 13.7946 3.12726 14.1094 3.51562 14.1094C3.90399 14.1094 4.21875 13.7946 4.21875 13.4062C4.21875 12.2432 5.16504 11.2969 6.32812 11.2969C6.71649 11.2969 7.03125 10.9821 7.03125 10.5938C7.03125 10.2054 6.71649 9.89062 6.32812 9.89062C5.16504 9.89062 4.21875 8.94434 4.21875 7.78125C4.21875 7.39288 3.90399 7.07812 3.51562 7.07812C3.12726 7.07812 2.8125 7.39288 2.8125 7.78125C2.8125 8.94434 1.86621 9.89062 0.703125 9.89062C0.314758 9.89062 0 10.2054 0 10.5938C0 10.9821 0.314758 11.2969 0.703125 11.2969C1.86621 11.2969 2.8125 12.2432 2.8125 13.4062ZM3.51562 9.88843C3.71613 10.1556 3.95398 10.3932 4.22095 10.5938C3.95398 10.7943 3.71613 11.0321 3.51562 11.2991C3.31512 11.0319 3.07727 10.7943 2.8103 10.5938C3.07727 10.3932 3.31512 10.1554 3.51562 9.88843Z" fill="#FFFAFA"/>
</g>
<defs>
<clipPath id="clip0_553_4808">
<rect width="24" height="24" fill="white"/>
</clipPath>
</defs>
</svg>


