<svg width="24" height="24" viewBox="0 0 24 24" fill="none" xmlns="http://www.w3.org/2000/svg">
<path d="M22.74 16.2103L12.7031 10.394V9.96122C12.7031 9.46772 12.9847 9.00867 13.4381 8.76324C14.4596 8.21034 15.0667 7.14539 15.0226 5.98402C14.963 4.41413 13.6868 3.13763 12.1172 3.07805C11.2867 3.04617 10.5001 3.34599 9.90248 3.92128C9.30445 4.497 8.97511 5.27119 8.97511 6.10116C8.97511 6.48947 9.28992 6.80428 9.67823 6.80428C10.0665 6.80428 10.3814 6.48947 10.3814 6.10116C10.3814 5.65688 10.5577 5.24255 10.8778 4.93435C11.1975 4.62656 11.6182 4.46592 12.0638 4.48327C12.9031 4.51514 13.5855 5.19778 13.6174 6.03736C13.641 6.65972 13.3158 7.23033 12.7687 7.52653C11.8609 8.01797 11.2969 8.95088 11.2969 9.96122V10.394L1.26005 16.2103C0.482813 16.6607 0 17.4986 0 18.397C0 19.7906 1.13353 20.9243 2.52684 20.9243H21.4732C22.8665 20.9243 24 19.7905 24 18.397C24 17.4986 23.5172 16.6607 22.74 16.2103ZM21.4732 19.518H2.52684C1.90894 19.518 1.40625 19.0151 1.40625 18.397C1.40625 17.9985 1.62037 17.6268 1.96514 17.427L12 11.6119L22.0349 17.427C22.3796 17.6268 22.5938 17.9985 22.5938 18.397C22.5938 19.0151 22.0911 19.518 21.4732 19.518Z" fill="#262626"/>
</svg>
