<svg width="24" height="24" viewBox="0 0 24 24" fill="none" xmlns="http://www.w3.org/2000/svg">
<path d="M19.1155 20.8706C19.04 19.9076 18.8649 18.8983 18.5952 17.8706C18.5459 17.6828 18.3537 17.5705 18.1659 17.6198C17.9781 17.6691 17.8658 17.8613 17.9151 18.0491C18.1742 19.0364 18.3423 20.0041 18.4145 20.9256C18.444 21.3021 18.1355 21.6287 17.7594 21.6287H6.2397C5.86348 21.6287 5.55697 21.302 5.58462 20.926C5.88533 16.8403 7.86617 13.3693 8.438 12.4433V17.3703C8.438 17.7006 8.70669 17.9692 9.03697 17.9692H9.95726C10.2875 17.9692 10.5562 17.7006 10.5562 17.3703V12.3554H12.5501C12.7443 12.3554 12.9017 12.198 12.9017 12.0038C12.9017 11.8096 12.7443 11.6522 12.5501 11.6522H10.5562V2.04183H13.3798H13.4346V2.92477H11.9059C11.7117 2.92477 11.5543 3.08217 11.5543 3.27633C11.5543 3.47048 11.7117 3.62789 11.9059 3.62789H13.4346C13.4338 4.35487 13.4352 8.91774 13.4346 9.52233C13.4346 9.85261 13.7033 10.1213 14.0336 10.1213H14.9539C15.2841 10.1213 15.5528 9.85261 15.5528 9.52233C15.5525 8.89022 15.553 5.15573 15.5528 4.44033L17.9255 5.48742C17.9816 5.51438 18.0152 5.57137 18.0114 5.63334C17.8341 8.4803 15.4415 11.7625 15.4174 11.7953C15.3305 11.9132 15.3259 12.0727 15.4058 12.1955C15.4178 12.214 16.6205 14.0769 17.5081 16.6969C17.5663 16.8688 17.7837 16.9746 17.9539 16.917C18.1377 16.8547 18.2363 16.6552 18.174 16.4713C17.42 14.2455 16.4649 12.5792 16.1227 12.0165C16.6609 11.2414 18.5467 8.35055 18.7131 5.67708C18.7352 5.32298 18.5413 4.99777 18.2189 4.84847C18.217 4.84758 18.2151 4.84669 18.2131 4.84584L15.5528 3.67177V3.42947C15.5528 2.96278 15.1731 2.58309 14.7065 2.58309H14.1377V1.69027C14.1377 1.46006 13.9263 1.34527 13.7314 1.3387V0.846375C13.7314 0.379687 13.3517 0 12.885 0H11.1168C10.6501 0 10.2704 0.379687 10.2704 0.846375V1.3387C10.0755 1.34527 9.86412 1.46006 9.86412 1.69027V2.58309H9.28437C8.81769 2.58309 8.438 2.96278 8.438 3.42947V3.67664L5.78872 4.84584C5.78675 4.84669 5.78483 4.84758 5.78291 4.84847C5.46064 4.99777 5.26662 5.32298 5.2887 5.67703C5.45487 8.34661 7.33531 11.2327 7.87667 12.0129C6.22428 14.6385 5.11147 17.7755 4.88337 20.8744C4.82675 21.6441 5.46659 22.3319 6.2397 22.3319H10.6233V23.6484C10.6233 23.8426 10.7807 24 10.9748 24H13.0271C13.2212 24 13.3786 23.8426 13.3786 23.6484V22.3319H17.7595C18.5316 22.3319 19.1761 21.6441 19.1155 20.8706ZM9.85311 17.2662H9.14112V16.734H9.85311V17.2662ZM14.8497 9.41817H14.1378V8.88605H14.8497V9.41817ZM14.8497 3.42947V8.18292H14.1378V3.28622H14.7065C14.7855 3.28622 14.8497 3.35048 14.8497 3.42947ZM10.9736 0.846375C10.9736 0.767391 11.0378 0.703125 11.1168 0.703125H12.885C12.964 0.703125 13.0283 0.767391 13.0283 0.846375V1.3387H10.9736V0.846375ZM5.99047 5.63334C5.98662 5.57142 6.02028 5.51442 6.07639 5.48747L8.438 4.4452V6.05077C8.45412 6.51628 9.12514 6.51591 9.14112 6.05077V3.42947C9.14112 3.35048 9.20539 3.28622 9.28437 3.28622H9.85311V16.0309H9.14112V7.5C9.125 7.03448 8.45398 7.03486 8.438 7.5V11.5867C7.91216 10.8194 6.1422 8.07042 5.99047 5.63334ZM12.6755 23.2969H11.3264V22.3319H12.6755V23.2969Z" fill="#FFFAFA"/>
</svg>




